{
    "asset" : {
        "generator" : "Khronos glTF Blender I/O v1.5.17",
        "version" : "2.0"
    },
    "scene" : 0,
    "scenes" : [
        {
            "name" : "Scene",
            "nodes" : [
                0,
                1
            ]
        }
    ],
    "nodes" : [
        {
            "mesh" : 0,
            "name" : "Drain_Valve",
            "rotation" : [
                0.7071068286895752,
                0,
                0,
                0.7071067094802856
            ]
        },
        {
            "mesh" : 1,
            "name" : "Drain_Valve.001",
            "rotation" : [
                0.7071068286895752,
                0,
                0,
                0.7071067094802856
            ]
        }
    ],
    "materials" : [
        {
            "doubleSided" : true,
            "name" : "Drain_Valve",
            "pbrMetallicRoughness" : {
                "baseColorFactor" : [
                    0.800000011920929,
                    0.800000011920929,
                    0.800000011920929,
                    1
                ],
                "metallicFactor" : 0,
                "roughnessFactor" : 0.5
            }
        }
    ],
    "meshes" : [
        {
            "name" : "Drain_Valve",
            "primitives" : [
                {
                    "attributes" : {
                        "POSITION" : 0,
                        "NORMAL" : 1
                    },
                    "indices" : 2,
                    "material" : 0
                }
            ]
        },
        {
            "name" : "Drain_Valve.001",
            "primitives" : [
                {
                    "attributes" : {
                        "POSITION" : 3,
                        "NORMAL" : 4
                    },
                    "indices" : 5,
                    "material" : 0
                }
            ]
        }
    ],
    "accessors" : [
        {
            "bufferView" : 0,
            "componentType" : 5126,
            "count" : 1828,
            "max" : [
                21.13736343383789,
                49.94493103027344,
                41.54443359375
            ],
            "min" : [
                -21.047447204589844,
                -49.888336181640625,
                -29.899341583251953
            ],
            "type" : "VEC3"
        },
        {
            "bufferView" : 1,
            "componentType" : 5126,
            "count" : 1828,
            "type" : "VEC3"
        },
        {
            "bufferView" : 2,
            "componentType" : 5123,
            "count" : 10923,
            "type" : "SCALAR"
        },
        {
            "bufferView" : 3,
            "componentType" : 5126,
            "count" : 590,
            "max" : [
                24.953582763671875,
                24.944250106811523,
                -29.814037322998047
            ],
            "min" : [
                -24.878948211669922,
                -24.88250160217285,
                -56.341129302978516
            ],
            "type" : "VEC3"
        },
        {
            "bufferView" : 4,
            "componentType" : 5126,
            "count" : 590,
            "type" : "VEC3"
        },
        {
            "bufferView" : 5,
            "componentType" : 5123,
            "count" : 3483,
            "type" : "SCALAR"
        }
    ],
    "bufferViews" : [
        {
            "buffer" : 0,
            "byteLength" : 21936,
            "byteOffset" : 0
        },
        {
            "buffer" : 0,
            "byteLength" : 21936,
            "byteOffset" : 21936
        },
        {
            "buffer" : 0,
            "byteLength" : 21846,
            "byteOffset" : 43872
        },
        {
            "buffer" : 0,
            "byteLength" : 7080,
            "byteOffset" : 65720
        },
        {
            "buffer" : 0,
            "byteLength" : 7080,
            "byteOffset" : 72800
        },
        {
            "buffer" : 0,
            "byteLength" : 6966,
            "byteOffset" : 79880
        }
    ],
    "buffers" : [
        {
            "byteLength" : 86848,
            "uri" : "data:application/octet-stream;base64,"
        }
    ]
}
