{
    "asset" : {
        "generator" : "Khronos glTF Blender I/O v1.5.17",
        "version" : "2.0"
    },
    "scene" : 0,
    "scenes" : [
        {
            "name" : "Scene",
            "nodes" : [
                0
            ]
        }
    ],
    "nodes" : [
        {
            "mesh" : 0,
            "name" : "Valve",
            "scale" : [
                0.02539999969303608,
                0.02539999969303608,
                0.02539999969303608
            ],
            "translation" : [
                0,
                0.09991231560707092,
                0
            ]
        }
    ],
    "materials" : [
        {
            "doubleSided" : true,
            "name" : "Drain_Valve",
            "pbrMetallicRoughness" : {
                "baseColorFactor" : [
                    0.5879999995231628,
                    0.5879999995231628,
                    0.5879999995231628,
                    1
                ],
                "roughnessFactor" : 0.858578622341156
            }
        }
    ],
    "meshes" : [
        {
            "name" : "Mesh",
            "primitives" : [
                {
                    "attributes" : {
                        "POSITION" : 0,
                        "NORMAL" : 1
                    },
                    "indices" : 2,
                    "material" : 0
                }
            ]
        }
    ],
    "accessors" : [
        {
            "bufferView" : 0,
            "componentType" : 5126,
            "count" : 2401,
            "max" : [
                1.9329073429107666,
                3.7967915534973145,
                3.8723392486572266
            ],
            "min" : [
                -1.9329075813293457,
                -3.7967915534973145,
                -3.8723392486572266
            ],
            "type" : "VEC3"
        },
        {
            "bufferView" : 1,
            "componentType" : 5126,
            "count" : 2401,
            "type" : "VEC3"
        },
        {
            "bufferView" : 2,
            "componentType" : 5123,
            "count" : 14406,
            "type" : "SCALAR"
        }
    ],
    "bufferViews" : [
        {
            "buffer" : 0,
            "byteLength" : 28812,
            "byteOffset" : 0
        },
        {
            "buffer" : 0,
            "byteLength" : 28812,
            "byteOffset" : 28812
        },
        {
            "buffer" : 0,
            "byteLength" : 28812,
            "byteOffset" : 57624
        }
    ],
    "buffers" : [
        {
            "byteLength" : 86436,
            "uri" : "valve.bin"
        }
    ]
}
