{
    "asset" : {
        "generator" : "Khronos glTF Blender I/O v1.6.16",
        "version" : "2.0"
    },
    "extensionsUsed" : [
        "KHR_materials_transmission"
    ],
    "scene" : 0,
    "scenes" : [
        {
            "name" : "Scene",
            "nodes" : [
                0
            ]
        }
    ],
    "nodes" : [
        {
            "mesh" : 0,
            "name" : "HawkeSight",
            "translation" : [
                -0.027797844260931015,
                0.0019645553547888994,
                -0.003056394634768367
            ]
        }
    ],
    "materials" : [
        {
            "doubleSided" : true,
            "name" : "Material.009",
            "pbrMetallicRoughness" : {
                "baseColorFactor" : [
                    0.09462526440620422,
                    0.09462526440620422,
                    0.09462526440620422,
                    1
                ]
            }
        },
        {
            "doubleSided" : true,
            "name" : "Rubber.001",
            "pbrMetallicRoughness" : {
                "baseColorFactor" : [
                    0.011400698684155941,
                    0.011400698684155941,
                    0.011400698684155941,
                    1
                ],
                "metallicFactor" : 0,
                "roughnessFactor" : 0.6363636255264282
            }
        },
        {
            "alphaMode" : "BLEND",
            "doubleSided" : true,
            "extensions" : {
                "KHR_materials_transmission" : {
                    "transmissionFactor" : 1
                }
            },
            "name" : "Material.005",
            "pbrMetallicRoughness" : {
                "baseColorFactor" : [
                    0.13394087553024292,
                    0.2655959129333496,
                    0.8000000715255737,
                    0.37438422441482544
                ],
                "metallicFactor" : 0,
                "roughnessFactor" : 0
            }
        },
        {
            "alphaMode" : "BLEND",
            "doubleSided" : true,
            "extensions" : {
                "KHR_materials_transmission" : {
                    "transmissionFactor" : 1
                }
            },
            "name" : "Material.003",
            "pbrMetallicRoughness" : {
                "baseColorFactor" : [
                    0.8000000715255737,
                    0.19169287383556366,
                    0.13682202994823456,
                    0.3891625702381134
                ],
                "metallicFactor" : 0,
                "roughnessFactor" : 0
            }
        },
        {
            "doubleSided" : true,
            "name" : "Material.002",
            "pbrMetallicRoughness" : {
                "baseColorFactor" : [
                    0.40964630246162415,
                    0.40964630246162415,
                    0.40964630246162415,
                    1
                ]
            }
        },
        {
            "doubleSided" : true,
            "name" : "Screws.001",
            "pbrMetallicRoughness" : {
                "baseColorFactor" : [
                    0.16987134516239166,
                    0.16987134516239166,
                    0.16987134516239166,
                    1
                ]
            }
        }
    ],
    "meshes" : [
        {
            "name" : "wBox.010",
            "primitives" : [
                {
                    "attributes" : {
                        "POSITION" : 0,
                        "NORMAL" : 1,
                        "TEXCOORD_0" : 2
                    },
                    "indices" : 3,
                    "material" : 0
                },
                {
                    "attributes" : {
                        "POSITION" : 4,
                        "NORMAL" : 5,
                        "TEXCOORD_0" : 6
                    },
                    "indices" : 7,
                    "material" : 1
                },
                {
                    "attributes" : {
                        "POSITION" : 8,
                        "NORMAL" : 9,
                        "TEXCOORD_0" : 10
                    },
                    "indices" : 11,
                    "material" : 2
                },
                {
                    "attributes" : {
                        "POSITION" : 12,
                        "NORMAL" : 13,
                        "TEXCOORD_0" : 14
                    },
                    "indices" : 15,
                    "material" : 3
                },
                {
                    "attributes" : {
                        "POSITION" : 16,
                        "NORMAL" : 17,
                        "TEXCOORD_0" : 18
                    },
                    "indices" : 19,
                    "material" : 4
                },
                {
                    "attributes" : {
                        "POSITION" : 20,
                        "NORMAL" : 21,
                        "TEXCOORD_0" : 22
                    },
                    "indices" : 23,
                    "material" : 5
                }
            ]
        }
    ],
    "accessors" : [
        {
            "bufferView" : 0,
            "componentType" : 5126,
            "count" : 9935,
            "max" : [
                0.029496068134903908,
                0.021806616336107254,
                0.018329350277781487
            ],
            "min" : [
                -0.028121648356318474,
                -0.023436371237039566,
                -0.018329352140426636
            ],
            "type" : "VEC3"
        },
        {
            "bufferView" : 1,
            "componentType" : 5126,
            "count" : 9935,
            "type" : "VEC3"
        },
        {
            "bufferView" : 2,
            "componentType" : 5126,
            "count" : 9935,
            "type" : "VEC2"
        },
        {
            "bufferView" : 3,
            "componentType" : 5123,
            "count" : 50274,
            "type" : "SCALAR"
        },
        {
            "bufferView" : 4,
            "componentType" : 5126,
            "count" : 2869,
            "max" : [
                0.027746712788939476,
                0.020577406510710716,
                0.016878565773367882
            ],
            "min" : [
                0.002936847507953644,
                -0.010394514538347721,
                -0.01687811315059662
            ],
            "type" : "VEC3"
        },
        {
            "bufferView" : 5,
            "componentType" : 5126,
            "count" : 2869,
            "type" : "VEC3"
        },
        {
            "bufferView" : 6,
            "componentType" : 5126,
            "count" : 2869,
            "type" : "VEC2"
        },
        {
            "bufferView" : 7,
            "componentType" : 5123,
            "count" : 14178,
            "type" : "SCALAR"
        },
        {
            "bufferView" : 8,
            "componentType" : 5126,
            "count" : 640,
            "max" : [
                0.026578331366181374,
                0.02039456181228161,
                0.016632912680506706
            ],
            "min" : [
                0.021354075521230698,
                -0.0030397060327231884,
                -0.016633467748761177
            ],
            "type" : "VEC3"
        },
        {
            "bufferView" : 9,
            "componentType" : 5126,
            "count" : 640,
            "type" : "VEC3"
        },
        {
            "bufferView" : 10,
            "componentType" : 5126,
            "count" : 640,
            "type" : "VEC2"
        },
        {
            "bufferView" : 11,
            "componentType" : 5123,
            "count" : 3465,
            "type" : "SCALAR"
        },
        {
            "bufferView" : 12,
            "componentType" : 5126,
            "count" : 639,
            "max" : [
                0.028270239010453224,
                0.02039455994963646,
                0.016632914543151855
            ],
            "min" : [
                0.02304597944021225,
                -0.003039706265553832,
                -0.016633469611406326
            ],
            "type" : "VEC3"
        },
        {
            "bufferView" : 13,
            "componentType" : 5126,
            "count" : 639,
            "type" : "VEC3"
        },
        {
            "bufferView" : 14,
            "componentType" : 5126,
            "count" : 639,
            "type" : "VEC2"
        },
        {
            "bufferView" : 15,
            "componentType" : 5123,
            "count" : 3459,
            "type" : "SCALAR"
        },
        {
            "bufferView" : 16,
            "componentType" : 5126,
            "count" : 4957,
            "max" : [
                0.008209262043237686,
                -0.01646442711353302,
                -0.012417403981089592
            ],
            "min" : [
                0.005434475839138031,
                -0.019239211454987526,
                -0.015382647514343262
            ],
            "type" : "VEC3"
        },
        {
            "bufferView" : 17,
            "componentType" : 5126,
            "count" : 4957,
            "type" : "VEC3"
        },
        {
            "bufferView" : 18,
            "componentType" : 5126,
            "count" : 4957,
            "type" : "VEC2"
        },
        {
            "bufferView" : 19,
            "componentType" : 5123,
            "count" : 17394,
            "type" : "SCALAR"
        },
        {
            "bufferView" : 20,
            "componentType" : 5126,
            "count" : 3087,
            "max" : [
                0.026245204731822014,
                -0.00028093147557228804,
                0.015180559828877449
            ],
            "min" : [
                -0.022999603301286697,
                -0.020699333399534225,
                -0.003910205326974392
            ],
            "type" : "VEC3"
        },
        {
            "bufferView" : 21,
            "componentType" : 5126,
            "count" : 3087,
            "type" : "VEC3"
        },
        {
            "bufferView" : 22,
            "componentType" : 5126,
            "count" : 3087,
            "type" : "VEC2"
        },
        {
            "bufferView" : 23,
            "componentType" : 5123,
            "count" : 16248,
            "type" : "SCALAR"
        }
    ],
    "bufferViews" : [
        {
            "buffer" : 0,
            "byteLength" : 119220,
            "byteOffset" : 0
        },
        {
            "buffer" : 0,
            "byteLength" : 119220,
            "byteOffset" : 119220
        },
        {
            "buffer" : 0,
            "byteLength" : 79480,
            "byteOffset" : 238440
        },
        {
            "buffer" : 0,
            "byteLength" : 100548,
            "byteOffset" : 317920
        },
        {
            "buffer" : 0,
            "byteLength" : 34428,
            "byteOffset" : 418468
        },
        {
            "buffer" : 0,
            "byteLength" : 34428,
            "byteOffset" : 452896
        },
        {
            "buffer" : 0,
            "byteLength" : 22952,
            "byteOffset" : 487324
        },
        {
            "buffer" : 0,
            "byteLength" : 28356,
            "byteOffset" : 510276
        },
        {
            "buffer" : 0,
            "byteLength" : 7680,
            "byteOffset" : 538632
        },
        {
            "buffer" : 0,
            "byteLength" : 7680,
            "byteOffset" : 546312
        },
        {
            "buffer" : 0,
            "byteLength" : 5120,
            "byteOffset" : 553992
        },
        {
            "buffer" : 0,
            "byteLength" : 6930,
            "byteOffset" : 559112
        },
        {
            "buffer" : 0,
            "byteLength" : 7668,
            "byteOffset" : 566044
        },
        {
            "buffer" : 0,
            "byteLength" : 7668,
            "byteOffset" : 573712
        },
        {
            "buffer" : 0,
            "byteLength" : 5112,
            "byteOffset" : 581380
        },
        {
            "buffer" : 0,
            "byteLength" : 6918,
            "byteOffset" : 586492
        },
        {
            "buffer" : 0,
            "byteLength" : 59484,
            "byteOffset" : 593412
        },
        {
            "buffer" : 0,
            "byteLength" : 59484,
            "byteOffset" : 652896
        },
        {
            "buffer" : 0,
            "byteLength" : 39656,
            "byteOffset" : 712380
        },
        {
            "buffer" : 0,
            "byteLength" : 34788,
            "byteOffset" : 752036
        },
        {
            "buffer" : 0,
            "byteLength" : 37044,
            "byteOffset" : 786824
        },
        {
            "buffer" : 0,
            "byteLength" : 37044,
            "byteOffset" : 823868
        },
        {
            "buffer" : 0,
            "byteLength" : 24696,
            "byteOffset" : 860912
        },
        {
            "buffer" : 0,
            "byteLength" : 32496,
            "byteOffset" : 885608
        }
    ],
    "buffers" : [
        {
            "byteLength" : 918104,
            "uri" : "data:application/octet-stream;base64,"
        }
    ]
}
