{
    "asset" : {
        "generator" : "Khronos glTF Blender I/O v1.6.16",
        "version" : "2.0"
    },
    "extensionsUsed" : [
        "KHR_materials_transmission"
    ],
    "scene" : 0,
    "scenes" : [
        {
            "name" : "Scene",
            "nodes" : [
                0
            ]
        }
    ],
    "nodes" : [
        {
            "mesh" : 0,
            "name" : "HawkeSight",
            "translation" : [
                -0.027797844260931015,
                0.0019645553547888994,
                -0.003056394634768367
            ]
        }
    ],
    "materials" : [
        {
            "doubleSided" : true,
            "name" : "Material.009",
            "pbrMetallicRoughness" : {
                "baseColorFactor" : [
                    0.09462526440620422,
                    0.09462526440620422,
                    0.09462526440620422,
                    1
                ]
            }
        },
        {
            "doubleSided" : true,
            "name" : "Rubber.001",
            "pbrMetallicRoughness" : {
                "baseColorFactor" : [
                    0.011400698684155941,
                    0.011400698684155941,
                    0.011400698684155941,
                    1
                ],
                "metallicFactor" : 0,
                "roughnessFactor" : 0.6363636255264282
            }
        },
        {
            "alphaMode" : "BLEND",
            "doubleSided" : true,
            "extensions" : {
                "KHR_materials_transmission" : {
                    "transmissionFactor" : 1
                }
            },
            "name" : "Material.005",
            "pbrMetallicRoughness" : {
                "baseColorFactor" : [
                    0.13394087553024292,
                    0.2655959129333496,
                    0.8000000715255737,
                    0.37438422441482544
                ],
                "metallicFactor" : 0,
                "roughnessFactor" : 0
            }
        },
        {
            "alphaMode" : "BLEND",
            "doubleSided" : true,
            "extensions" : {
                "KHR_materials_transmission" : {
                    "transmissionFactor" : 1
                }
            },
            "name" : "Material.003",
            "pbrMetallicRoughness" : {
                "baseColorFactor" : [
                    0.8000000715255737,
                    0.19169287383556366,
                    0.13682202994823456,
                    0.3891625702381134
                ],
                "metallicFactor" : 0,
                "roughnessFactor" : 0
            }
        },
        {
            "doubleSided" : true,
            "name" : "Material.002",
            "pbrMetallicRoughness" : {
                "baseColorFactor" : [
                    0.40964630246162415,
                    0.40964630246162415,
                    0.40964630246162415,
                    1
                ]
            }
        },
        {
            "doubleSided" : true,
            "name" : "Screws.001",
            "pbrMetallicRoughness" : {
                "baseColorFactor" : [
                    0.16987134516239166,
                    0.16987134516239166,
                    0.16987134516239166,
                    1
                ]
            }
        }
    ],
    "meshes" : [
        {
            "name" : "wBox.010",
            "primitives" : [
                {
                    "attributes" : {
                        "POSITION" : 0,
                        "NORMAL" : 1,
                        "TEXCOORD_0" : 2
                    },
                    "indices" : 3,
                    "material" : 0
                },
                {
                    "attributes" : {
                        "POSITION" : 4,
                        "NORMAL" : 5,
                        "TEXCOORD_0" : 6
                    },
                    "indices" : 7,
                    "material" : 1
                },
                {
                    "attributes" : {
                        "POSITION" : 8,
                        "NORMAL" : 9,
                        "TEXCOORD_0" : 10
                    },
                    "indices" : 11,
                    "material" : 2
                },
                {
                    "attributes" : {
                        "POSITION" : 12,
                        "NORMAL" : 13,
                        "TEXCOORD_0" : 14
                    },
                    "indices" : 11,
                    "material" : 3
                },
                {
                    "attributes" : {
                        "POSITION" : 15,
                        "NORMAL" : 16,
                        "TEXCOORD_0" : 17
                    },
                    "indices" : 18,
                    "material" : 4
                },
                {
                    "attributes" : {
                        "POSITION" : 19,
                        "NORMAL" : 20,
                        "TEXCOORD_0" : 21
                    },
                    "indices" : 22,
                    "material" : 5
                }
            ]
        }
    ],
    "accessors" : [
        {
            "bufferView" : 0,
            "componentType" : 5126,
            "count" : 5156,
            "max" : [
                0.029496068134903908,
                0.022065656259655952,
                0.018329337239265442
            ],
            "min" : [
                -0.028121966868638992,
                -0.02343636378645897,
                -0.018329337239265442
            ],
            "type" : "VEC3"
        },
        {
            "bufferView" : 1,
            "componentType" : 5126,
            "count" : 5156,
            "type" : "VEC3"
        },
        {
            "bufferView" : 2,
            "componentType" : 5126,
            "count" : 5156,
            "type" : "VEC2"
        },
        {
            "bufferView" : 3,
            "componentType" : 5123,
            "count" : 20241,
            "type" : "SCALAR"
        },
        {
            "bufferView" : 4,
            "componentType" : 5126,
            "count" : 1893,
            "max" : [
                0.027842635288834572,
                0.020768797025084496,
                0.016889061778783798
            ],
            "min" : [
                0.00293617881834507,
                -0.010395320132374763,
                -0.01688905991613865
            ],
            "type" : "VEC3"
        },
        {
            "bufferView" : 5,
            "componentType" : 5126,
            "count" : 1893,
            "type" : "VEC3"
        },
        {
            "bufferView" : 6,
            "componentType" : 5126,
            "count" : 1893,
            "type" : "VEC2"
        },
        {
            "bufferView" : 7,
            "componentType" : 5123,
            "count" : 7944,
            "type" : "SCALAR"
        },
        {
            "bufferView" : 8,
            "componentType" : 5126,
            "count" : 114,
            "max" : [
                0.026690006256103516,
                0.020527463406324387,
                0.016639484092593193
            ],
            "min" : [
                0.02125132828950882,
                -0.0030396655201911926,
                -0.016639480367302895
            ],
            "type" : "VEC3"
        },
        {
            "bufferView" : 9,
            "componentType" : 5126,
            "count" : 114,
            "type" : "VEC3"
        },
        {
            "bufferView" : 10,
            "componentType" : 5126,
            "count" : 114,
            "type" : "VEC2"
        },
        {
            "bufferView" : 11,
            "componentType" : 5123,
            "count" : 582,
            "type" : "SCALAR"
        },
        {
            "bufferView" : 12,
            "componentType" : 5126,
            "count" : 114,
            "max" : [
                0.028381912037730217,
                0.020527463406324387,
                0.016639484092593193
            ],
            "min" : [
                0.02294323407113552,
                -0.0030396655201911926,
                -0.016639480367302895
            ],
            "type" : "VEC3"
        },
        {
            "bufferView" : 13,
            "componentType" : 5126,
            "count" : 114,
            "type" : "VEC3"
        },
        {
            "bufferView" : 14,
            "componentType" : 5126,
            "count" : 114,
            "type" : "VEC2"
        },
        {
            "bufferView" : 15,
            "componentType" : 5126,
            "count" : 2437,
            "max" : [
                0.008246153593063354,
                -0.01642756722867489,
                -0.01241486519575119
            ],
            "min" : [
                0.0053976173512637615,
                -0.019276103004813194,
                -0.01538268756121397
            ],
            "type" : "VEC3"
        },
        {
            "bufferView" : 16,
            "componentType" : 5126,
            "count" : 2437,
            "type" : "VEC3"
        },
        {
            "bufferView" : 17,
            "componentType" : 5126,
            "count" : 2437,
            "type" : "VEC2"
        },
        {
            "bufferView" : 18,
            "componentType" : 5123,
            "count" : 9294,
            "type" : "SCALAR"
        },
        {
            "bufferView" : 19,
            "componentType" : 5126,
            "count" : 3263,
            "max" : [
                0.026262907311320305,
                -0.00028092460706830025,
                0.015180593356490135
            ],
            "min" : [
                -0.023044534027576447,
                -0.02070942334830761,
                -0.003955647815018892
            ],
            "type" : "VEC3"
        },
        {
            "bufferView" : 20,
            "componentType" : 5126,
            "count" : 3263,
            "type" : "VEC3"
        },
        {
            "bufferView" : 21,
            "componentType" : 5126,
            "count" : 3263,
            "type" : "VEC2"
        },
        {
            "bufferView" : 22,
            "componentType" : 5123,
            "count" : 14388,
            "type" : "SCALAR"
        }
    ],
    "bufferViews" : [
        {
            "buffer" : 0,
            "byteLength" : 61872,
            "byteOffset" : 0
        },
        {
            "buffer" : 0,
            "byteLength" : 61872,
            "byteOffset" : 61872
        },
        {
            "buffer" : 0,
            "byteLength" : 41248,
            "byteOffset" : 123744
        },
        {
            "buffer" : 0,
            "byteLength" : 40482,
            "byteOffset" : 164992
        },
        {
            "buffer" : 0,
            "byteLength" : 22716,
            "byteOffset" : 205476
        },
        {
            "buffer" : 0,
            "byteLength" : 22716,
            "byteOffset" : 228192
        },
        {
            "buffer" : 0,
            "byteLength" : 15144,
            "byteOffset" : 250908
        },
        {
            "buffer" : 0,
            "byteLength" : 15888,
            "byteOffset" : 266052
        },
        {
            "buffer" : 0,
            "byteLength" : 1368,
            "byteOffset" : 281940
        },
        {
            "buffer" : 0,
            "byteLength" : 1368,
            "byteOffset" : 283308
        },
        {
            "buffer" : 0,
            "byteLength" : 912,
            "byteOffset" : 284676
        },
        {
            "buffer" : 0,
            "byteLength" : 1164,
            "byteOffset" : 285588
        },
        {
            "buffer" : 0,
            "byteLength" : 1368,
            "byteOffset" : 286752
        },
        {
            "buffer" : 0,
            "byteLength" : 1368,
            "byteOffset" : 288120
        },
        {
            "buffer" : 0,
            "byteLength" : 912,
            "byteOffset" : 289488
        },
        {
            "buffer" : 0,
            "byteLength" : 29244,
            "byteOffset" : 290400
        },
        {
            "buffer" : 0,
            "byteLength" : 29244,
            "byteOffset" : 319644
        },
        {
            "buffer" : 0,
            "byteLength" : 19496,
            "byteOffset" : 348888
        },
        {
            "buffer" : 0,
            "byteLength" : 18588,
            "byteOffset" : 368384
        },
        {
            "buffer" : 0,
            "byteLength" : 39156,
            "byteOffset" : 386972
        },
        {
            "buffer" : 0,
            "byteLength" : 39156,
            "byteOffset" : 426128
        },
        {
            "buffer" : 0,
            "byteLength" : 26104,
            "byteOffset" : 465284
        },
        {
            "buffer" : 0,
            "byteLength" : 28776,
            "byteOffset" : 491388
        }
    ],
    "buffers" : [
        {
            "byteLength" : 520164,
            "uri" : "data:application/octet-stream;base64,"
        }
    ]
}
