{
    "asset" : {
        "generator" : "Khronos glTF Blender I/O v1.6.16",
        "version" : "2.0"
    },
    "extensionsUsed" : [
        "KHR_materials_transmission"
    ],
    "scene" : 0,
    "scenes" : [
        {
            "name" : "Scene",
            "nodes" : [
                0
            ]
        }
    ],
    "nodes" : [
        {
            "mesh" : 0,
            "name" : "HawkeSight",
            "translation" : [
                -0.027797844260931015,
                0.0019645553547888994,
                -0.003056394634768367
            ]
        }
    ],
    "materials" : [
        {
            "doubleSided" : true,
            "name" : "Material.009",
            "pbrMetallicRoughness" : {
                "baseColorFactor" : [
                    0.09462526440620422,
                    0.09462526440620422,
                    0.09462526440620422,
                    1
                ]
            }
        },
        {
            "doubleSided" : true,
            "name" : "Rubber.001",
            "pbrMetallicRoughness" : {
                "baseColorFactor" : [
                    0.011400698684155941,
                    0.011400698684155941,
                    0.011400698684155941,
                    1
                ],
                "metallicFactor" : 0,
                "roughnessFactor" : 0.6363636255264282
            }
        },
        {
            "alphaMode" : "BLEND",
            "doubleSided" : true,
            "extensions" : {
                "KHR_materials_transmission" : {
                    "transmissionFactor" : 1
                }
            },
            "name" : "Material.005",
            "pbrMetallicRoughness" : {
                "baseColorFactor" : [
                    0.13394087553024292,
                    0.2655959129333496,
                    0.8000000715255737,
                    0.37438422441482544
                ],
                "metallicFactor" : 0,
                "roughnessFactor" : 0
            }
        },
        {
            "alphaMode" : "BLEND",
            "doubleSided" : true,
            "extensions" : {
                "KHR_materials_transmission" : {
                    "transmissionFactor" : 1
                }
            },
            "name" : "Material.003",
            "pbrMetallicRoughness" : {
                "baseColorFactor" : [
                    0.8000000715255737,
                    0.19169287383556366,
                    0.13682202994823456,
                    0.3891625702381134
                ],
                "metallicFactor" : 0,
                "roughnessFactor" : 0
            }
        },
        {
            "doubleSided" : true,
            "name" : "Material.002",
            "pbrMetallicRoughness" : {
                "baseColorFactor" : [
                    0.40964630246162415,
                    0.40964630246162415,
                    0.40964630246162415,
                    1
                ]
            }
        },
        {
            "doubleSided" : true,
            "name" : "Screws.001",
            "pbrMetallicRoughness" : {
                "baseColorFactor" : [
                    0.16987134516239166,
                    0.16987134516239166,
                    0.16987134516239166,
                    1
                ]
            }
        }
    ],
    "meshes" : [
        {
            "name" : "wBox.010",
            "primitives" : [
                {
                    "attributes" : {
                        "POSITION" : 0,
                        "NORMAL" : 1,
                        "TEXCOORD_0" : 2
                    },
                    "indices" : 3,
                    "material" : 0
                },
                {
                    "attributes" : {
                        "POSITION" : 4,
                        "NORMAL" : 5,
                        "TEXCOORD_0" : 6
                    },
                    "indices" : 7,
                    "material" : 1
                },
                {
                    "attributes" : {
                        "POSITION" : 8,
                        "NORMAL" : 9,
                        "TEXCOORD_0" : 10
                    },
                    "indices" : 11,
                    "material" : 2
                },
                {
                    "attributes" : {
                        "POSITION" : 12,
                        "NORMAL" : 13,
                        "TEXCOORD_0" : 14
                    },
                    "indices" : 11,
                    "material" : 3
                },
                {
                    "attributes" : {
                        "POSITION" : 15,
                        "NORMAL" : 16,
                        "TEXCOORD_0" : 17
                    },
                    "indices" : 18,
                    "material" : 4
                },
                {
                    "attributes" : {
                        "POSITION" : 19,
                        "NORMAL" : 20,
                        "TEXCOORD_0" : 21
                    },
                    "indices" : 22,
                    "material" : 5
                }
            ]
        }
    ],
    "accessors" : [
        {
            "bufferView" : 0,
            "componentType" : 5126,
            "count" : 18613,
            "max" : [
                0.029496071860194206,
                0.02176692709326744,
                0.018329337239265442
            ],
            "min" : [
                -0.02812192216515541,
                -0.023436367511749268,
                -0.018329335376620293
            ],
            "type" : "VEC3"
        },
        {
            "bufferView" : 1,
            "componentType" : 5126,
            "count" : 18613,
            "type" : "VEC3"
        },
        {
            "bufferView" : 2,
            "componentType" : 5126,
            "count" : 18613,
            "type" : "VEC2"
        },
        {
            "bufferView" : 3,
            "componentType" : 5123,
            "count" : 81378,
            "type" : "SCALAR"
        },
        {
            "bufferView" : 4,
            "componentType" : 5126,
            "count" : 6771,
            "max" : [
                0.02772342972457409,
                0.020519830286502838,
                0.01687193661928177
            ],
            "min" : [
                0.0029365820810198784,
                -0.010395199991762638,
                -0.016871776431798935
            ],
            "type" : "VEC3"
        },
        {
            "bufferView" : 5,
            "componentType" : 5126,
            "count" : 6771,
            "type" : "VEC3"
        },
        {
            "bufferView" : 6,
            "componentType" : 5126,
            "count" : 6771,
            "type" : "VEC2"
        },
        {
            "bufferView" : 7,
            "componentType" : 5123,
            "count" : 31944,
            "type" : "SCALAR"
        },
        {
            "bufferView" : 8,
            "componentType" : 5126,
            "count" : 427,
            "max" : [
                0.026555156335234642,
                0.020346272736787796,
                0.016606472432613373
            ],
            "min" : [
                0.021393293514847755,
                -0.0030285806860774755,
                -0.016606468707323074
            ],
            "type" : "VEC3"
        },
        {
            "bufferView" : 9,
            "componentType" : 5126,
            "count" : 427,
            "type" : "VEC3"
        },
        {
            "bufferView" : 10,
            "componentType" : 5126,
            "count" : 427,
            "type" : "VEC2"
        },
        {
            "bufferView" : 11,
            "componentType" : 5123,
            "count" : 2364,
            "type" : "SCALAR"
        },
        {
            "bufferView" : 12,
            "componentType" : 5126,
            "count" : 427,
            "max" : [
                0.028247063979506493,
                0.020346272736787796,
                0.016606472432613373
            ],
            "min" : [
                0.023085197433829308,
                -0.0030285806860774755,
                -0.016606468707323074
            ],
            "type" : "VEC3"
        },
        {
            "bufferView" : 13,
            "componentType" : 5126,
            "count" : 427,
            "type" : "VEC3"
        },
        {
            "bufferView" : 14,
            "componentType" : 5126,
            "count" : 427,
            "type" : "VEC2"
        },
        {
            "bufferView" : 15,
            "componentType" : 5126,
            "count" : 7668,
            "max" : [
                0.008197635412216187,
                -0.016476089134812355,
                -0.012419593520462513
            ],
            "min" : [
                0.005446136929094791,
                -0.019227584823966026,
                -0.015382691286504269
            ],
            "type" : "VEC3"
        },
        {
            "bufferView" : 16,
            "componentType" : 5126,
            "count" : 7668,
            "type" : "VEC3"
        },
        {
            "bufferView" : 17,
            "componentType" : 5126,
            "count" : 7668,
            "type" : "VEC2"
        },
        {
            "bufferView" : 18,
            "componentType" : 5123,
            "count" : 37284,
            "type" : "SCALAR"
        },
        {
            "bufferView" : 19,
            "componentType" : 5126,
            "count" : 10743,
            "max" : [
                0.026242412626743317,
                -0.0002809245779644698,
                0.015180597081780434
            ],
            "min" : [
                -0.022993410006165504,
                -0.020695196464657784,
                -0.0039045228622853756
            ],
            "type" : "VEC3"
        },
        {
            "bufferView" : 20,
            "componentType" : 5126,
            "count" : 10743,
            "type" : "VEC3"
        },
        {
            "bufferView" : 21,
            "componentType" : 5126,
            "count" : 10743,
            "type" : "VEC2"
        },
        {
            "bufferView" : 22,
            "componentType" : 5123,
            "count" : 58296,
            "type" : "SCALAR"
        }
    ],
    "bufferViews" : [
        {
            "buffer" : 0,
            "byteLength" : 223356,
            "byteOffset" : 0
        },
        {
            "buffer" : 0,
            "byteLength" : 223356,
            "byteOffset" : 223356
        },
        {
            "buffer" : 0,
            "byteLength" : 148904,
            "byteOffset" : 446712
        },
        {
            "buffer" : 0,
            "byteLength" : 162756,
            "byteOffset" : 595616
        },
        {
            "buffer" : 0,
            "byteLength" : 81252,
            "byteOffset" : 758372
        },
        {
            "buffer" : 0,
            "byteLength" : 81252,
            "byteOffset" : 839624
        },
        {
            "buffer" : 0,
            "byteLength" : 54168,
            "byteOffset" : 920876
        },
        {
            "buffer" : 0,
            "byteLength" : 63888,
            "byteOffset" : 975044
        },
        {
            "buffer" : 0,
            "byteLength" : 5124,
            "byteOffset" : 1038932
        },
        {
            "buffer" : 0,
            "byteLength" : 5124,
            "byteOffset" : 1044056
        },
        {
            "buffer" : 0,
            "byteLength" : 3416,
            "byteOffset" : 1049180
        },
        {
            "buffer" : 0,
            "byteLength" : 4728,
            "byteOffset" : 1052596
        },
        {
            "buffer" : 0,
            "byteLength" : 5124,
            "byteOffset" : 1057324
        },
        {
            "buffer" : 0,
            "byteLength" : 5124,
            "byteOffset" : 1062448
        },
        {
            "buffer" : 0,
            "byteLength" : 3416,
            "byteOffset" : 1067572
        },
        {
            "buffer" : 0,
            "byteLength" : 92016,
            "byteOffset" : 1070988
        },
        {
            "buffer" : 0,
            "byteLength" : 92016,
            "byteOffset" : 1163004
        },
        {
            "buffer" : 0,
            "byteLength" : 61344,
            "byteOffset" : 1255020
        },
        {
            "buffer" : 0,
            "byteLength" : 74568,
            "byteOffset" : 1316364
        },
        {
            "buffer" : 0,
            "byteLength" : 128916,
            "byteOffset" : 1390932
        },
        {
            "buffer" : 0,
            "byteLength" : 128916,
            "byteOffset" : 1519848
        },
        {
            "buffer" : 0,
            "byteLength" : 85944,
            "byteOffset" : 1648764
        },
        {
            "buffer" : 0,
            "byteLength" : 116592,
            "byteOffset" : 1734708
        }
    ],
    "buffers" : [
        {
            "byteLength" : 1851300,
            "uri" : "data:application/octet-stream;base64,"
        }
    ]
}
