{
    "asset" : {
        "generator" : "Khronos glTF Blender I/O v1.6.16",
        "version" : "2.0"
    },
    "scene" : 0,
    "scenes" : [
        {
            "name" : "Scene",
            "nodes" : [
                0
            ]
        }
    ],
    "nodes" : [
        {
            "mesh" : 0,
            "name" : "HawkeSight",
            "translation" : [
                -0.027797844260931015,
                0.0019645553547888994,
                -0.003056394634768367
            ]
        }
    ],
    "materials" : [
        {
            "doubleSided" : true,
            "name" : "Material",
            "pbrMetallicRoughness" : {
                "baseColorFactor" : [
                    0.800000011920929,
                    0.800000011920929,
                    0.800000011920929,
                    1
                ],
                "roughnessFactor" : 0.38235294818878174
            }
        }
    ],
    "meshes" : [
        {
            "name" : "wBox.010",
            "primitives" : [
                {
                    "attributes" : {
                        "POSITION" : 0,
                        "NORMAL" : 1,
                        "TEXCOORD_0" : 2
                    },
                    "indices" : 3,
                    "material" : 0
                }
            ]
        }
    ],
    "accessors" : [
        {
            "bufferView" : 0,
            "componentType" : 5126,
            "count" : 22054,
            "max" : [
                0.029496068134903908,
                0.021806616336107254,
                0.018329350277781487
            ],
            "min" : [
                -0.028121648356318474,
                -0.023436371237039566,
                -0.018329352140426636
            ],
            "type" : "VEC3"
        },
        {
            "bufferView" : 1,
            "componentType" : 5126,
            "count" : 22054,
            "type" : "VEC3"
        },
        {
            "bufferView" : 2,
            "componentType" : 5126,
            "count" : 22054,
            "type" : "VEC2"
        },
        {
            "bufferView" : 3,
            "componentType" : 5123,
            "count" : 105018,
            "type" : "SCALAR"
        }
    ],
    "bufferViews" : [
        {
            "buffer" : 0,
            "byteLength" : 264648,
            "byteOffset" : 0
        },
        {
            "buffer" : 0,
            "byteLength" : 264648,
            "byteOffset" : 264648
        },
        {
            "buffer" : 0,
            "byteLength" : 176432,
            "byteOffset" : 529296
        },
        {
            "buffer" : 0,
            "byteLength" : 210036,
            "byteOffset" : 705728
        }
    ],
    "buffers" : [
        {
            "byteLength" : 915764,
            "uri" : "data:application/octet-stream;base64,"
        }
    ]
}
