{
    "asset" : {
        "generator" : "Khronos glTF Blender I/O v1.5.17",
        "version" : "2.0"
    },
    "scene" : 0,
    "scenes" : [
        {
            "name" : "Scene",
            "nodes" : [
                0,
                1
            ]
        }
    ],
    "nodes" : [
        {
            "mesh" : 0,
            "name" : "mis35_base_low",
            "rotation" : [
                0,
                0.7071065902709961,
                -0.7071069478988647,
                1.3767875373105198e-07
            ],
            "scale" : [
                0.011472443118691444,
                0.011472443118691444,
                0.009277299046516418
            ],
            "translation" : [
                -0.12403091788291931,
                0.21766753494739532,
                0
            ]
        },
        {
            "mesh" : 1,
            "name" : "mis35_Up_low",
            "rotation" : [
                0,
                0.7071065902709961,
                -0.7071069478988647,
                1.3767875373105198e-07
            ],
            "scale" : [
                0.011472443118691444,
                0.011472443118691444,
                0.009277299046516418
            ],
            "translation" : [
                -0.12403091788291931,
                0.21766753494739532,
                0
            ]
        }
    ],
    "materials" : [
        {
            "doubleSided" : true,
            "name" : "mis35",
            "normalTexture" : {
                "index" : 0
            },
            "pbrMetallicRoughness" : {
                "baseColorTexture" : {
                    "index" : 1
                },
                "metallicFactor" : 0,
                "metallicRoughnessTexture" : {
                    "index" : 2
                }
            }
        }
    ],
    "meshes" : [
        {
            "name" : "Mesh",
            "primitives" : [
                {
                    "attributes" : {
                        "POSITION" : 0,
                        "NORMAL" : 1,
                        "TEXCOORD_0" : 2,
                        "TEXCOORD_1" : 3,
                        "TEXCOORD_2" : 4,
                        "TEXCOORD_3" : 5,
                        "TEXCOORD_4" : 6
                    },
                    "indices" : 7,
                    "material" : 0
                }
            ]
        },
        {
            "name" : "Mesh.001",
            "primitives" : [
                {
                    "attributes" : {
                        "POSITION" : 8,
                        "NORMAL" : 9,
                        "TEXCOORD_0" : 10,
                        "TEXCOORD_1" : 11,
                        "TEXCOORD_2" : 12,
                        "TEXCOORD_3" : 13,
                        "TEXCOORD_4" : 14
                    },
                    "indices" : 15,
                    "material" : 0
                }
            ]
        }
    ],
    "textures" : [
        {
            "sampler" : 0,
            "source" : 0
        },
        {
            "sampler" : 0,
            "source" : 1
        },
        {
            "sampler" : 0,
            "source" : 2
        }
    ],
    "images" : [
        {
            "bufferView" : 8,
            "mimeType" : "image/png",
            "name" : "fauset_low_mis35_Normal"
        },
        {
            "bufferView" : 9,
            "mimeType" : "image/png",
            "name" : "fauset_low_mis35_BaseColor"
        },
        {
            "bufferView" : 10,
            "mimeType" : "image/png",
            "name" : "fauset_low_mis35_OcclusionRoughnessMetallic"
        }
    ],
    "accessors" : [
        {
            "bufferView" : 0,
            "componentType" : 5126,
            "count" : 2198,
            "max" : [
                -2.779505968093872,
                2.4218292236328125,
                23.462385177612305
            ],
            "min" : [
                -13.221673965454102,
                -2.4218297004699707,
                9.641423225402832
            ],
            "type" : "VEC3"
        },
        {
            "bufferView" : 1,
            "componentType" : 5126,
            "count" : 2198,
            "type" : "VEC3"
        },
        {
            "bufferView" : 2,
            "componentType" : 5126,
            "count" : 2198,
            "type" : "VEC2"
        },
        {
            "bufferView" : 3,
            "componentType" : 5126,
            "count" : 2198,
            "type" : "VEC2"
        },
        {
            "bufferView" : 4,
            "componentType" : 5126,
            "count" : 2198,
            "type" : "VEC2"
        },
        {
            "bufferView" : 5,
            "componentType" : 5126,
            "count" : 2198,
            "type" : "VEC2"
        },
        {
            "bufferView" : 6,
            "componentType" : 5126,
            "count" : 2198,
            "type" : "VEC2"
        },
        {
            "bufferView" : 7,
            "componentType" : 5123,
            "count" : 7596,
            "type" : "SCALAR"
        },
        {
            "bufferView" : 11,
            "componentType" : 5126,
            "count" : 1198,
            "max" : [
                -9.732396125793457,
                0.989628791809082,
                11.822564125061035
            ],
            "min" : [
                -11.890028953552246,
                -20.024887084960938,
                -9.8175630569458
            ],
            "type" : "VEC3"
        },
        {
            "bufferView" : 12,
            "componentType" : 5126,
            "count" : 1198,
            "type" : "VEC3"
        },
        {
            "bufferView" : 13,
            "componentType" : 5126,
            "count" : 1198,
            "type" : "VEC2"
        },
        {
            "bufferView" : 14,
            "componentType" : 5126,
            "count" : 1198,
            "type" : "VEC2"
        },
        {
            "bufferView" : 15,
            "componentType" : 5126,
            "count" : 1198,
            "type" : "VEC2"
        },
        {
            "bufferView" : 16,
            "componentType" : 5126,
            "count" : 1198,
            "type" : "VEC2"
        },
        {
            "bufferView" : 17,
            "componentType" : 5126,
            "count" : 1198,
            "type" : "VEC2"
        },
        {
            "bufferView" : 18,
            "componentType" : 5123,
            "count" : 5457,
            "type" : "SCALAR"
        }
    ],
    "bufferViews" : [
        {
            "buffer" : 0,
            "byteLength" : 26376,
            "byteOffset" : 0
        },
        {
            "buffer" : 0,
            "byteLength" : 26376,
            "byteOffset" : 26376
        },
        {
            "buffer" : 0,
            "byteLength" : 17584,
            "byteOffset" : 52752
        },
        {
            "buffer" : 0,
            "byteLength" : 17584,
            "byteOffset" : 70336
        },
        {
            "buffer" : 0,
            "byteLength" : 17584,
            "byteOffset" : 87920
        },
        {
            "buffer" : 0,
            "byteLength" : 17584,
            "byteOffset" : 105504
        },
        {
            "buffer" : 0,
            "byteLength" : 17584,
            "byteOffset" : 123088
        },
        {
            "buffer" : 0,
            "byteLength" : 15192,
            "byteOffset" : 140672
        },
        {
            "buffer" : 0,
            "byteLength" : 10519,
            "byteOffset" : 155864
        },
        {
            "buffer" : 0,
            "byteLength" : 162356,
            "byteOffset" : 166384
        },
        {
            "buffer" : 0,
            "byteLength" : 512094,
            "byteOffset" : 328740
        },
        {
            "buffer" : 0,
            "byteLength" : 14376,
            "byteOffset" : 840836
        },
        {
            "buffer" : 0,
            "byteLength" : 14376,
            "byteOffset" : 855212
        },
        {
            "buffer" : 0,
            "byteLength" : 9584,
            "byteOffset" : 869588
        },
        {
            "buffer" : 0,
            "byteLength" : 9584,
            "byteOffset" : 879172
        },
        {
            "buffer" : 0,
            "byteLength" : 9584,
            "byteOffset" : 888756
        },
        {
            "buffer" : 0,
            "byteLength" : 9584,
            "byteOffset" : 898340
        },
        {
            "buffer" : 0,
            "byteLength" : 9584,
            "byteOffset" : 907924
        },
        {
            "buffer" : 0,
            "byteLength" : 10914,
            "byteOffset" : 917508
        }
    ],
    "samplers" : [
        {
            "magFilter" : 9729,
            "minFilter" : 9987
        }
    ],
    "buffers" : [
        {
            "byteLength" : 928424,
            "uri" : "data:application/octet-stream;base64,"
        }
    ]
}
