{
    "asset" : {
        "generator" : "Khronos glTF Blender I/O v1.5.17",
        "version" : "2.0"
    },
    "scene" : 0,
    "scenes" : [
        {
            "name" : "Scene",
            "nodes" : [
                0,
                1,
                2,
                10
            ]
        }
    ],
    "nodes" : [
        {
            "mesh" : 0,
            "name" : "Bowl",
            "scale" : [
                0.2199999988079071,
                1,
                0.3474999964237213
            ]
        },
        {
            "mesh" : 1,
            "name" : "Tank"
        },
        {
            "mesh" : 2,
            "name" : "TankCover"
        },
        {
            "name" : "Bone",
            "rotation" : [
                0.04245716705918312,
                -5.596970709120797e-07,
                -9.307898835686501e-06,
                0.9990983009338379
            ],
            "scale" : [
                1,
                1.0014640092849731,
                1.0000126361846924
            ],
            "translation" : [
                1.490207068854943e-08,
                0.4586280584335327,
                -0.30114835500717163
            ]
        },
        {
            "name" : "Bone.001",
            "rotation" : [
                0.701069712638855,
                -5.711687663279008e-06,
                -5.578016043727985e-06,
                0.7130927443504333
            ],
            "scale" : [
                1,
                0.9999998807907104,
                0.9990211129188538
            ],
            "translation" : [
                1.4901615941198543e-08,
                0.42390480637550354,
                -0.2632421851158142
            ]
        },
        {
            "name" : "Bone.002",
            "rotation" : [
                -0.5000028610229492,
                0.4999983310699463,
                0.4999983310699463,
                0.5000006556510925
            ],
            "scale" : [
                0.9999997615814209,
                0.9999997615814209,
                1
            ],
            "translation" : [
                -0.1388929784297943,
                0.7011120915412903,
                -0.3093956410884857
            ]
        },
        {
            "mesh" : 3,
            "name" : "Cover",
            "skin" : 0
        },
        {
            "mesh" : 4,
            "name" : "Hinges",
            "skin" : 0
        },
        {
            "mesh" : 5,
            "name" : "Lever",
            "skin" : 0
        },
        {
            "mesh" : 6,
            "name" : "Seat",
            "skin" : 0
        },
        {
            "children" : [
                6,
                7,
                8,
                9,
                3,
                4,
                5
            ],
            "name" : "Armature"
        }
    ],
    "materials" : [
        {
            "doubleSided" : true,
            "name" : "Material",
            "pbrMetallicRoughness" : {
                "baseColorFactor" : [
                    0.800000011920929,
                    0.800000011920929,
                    0.800000011920929,
                    1
                ],
                "metallicFactor" : 0,
                "roughnessFactor" : 0.10000000149011612
            }
        },
        {
            "doubleSided" : true,
            "name" : "Material.001",
            "pbrMetallicRoughness" : {
                "baseColorFactor" : [
                    0.30000001192092896,
                    0.30000001192092896,
                    0.30000001192092896,
                    1
                ],
                "roughnessFactor" : 0.20000000298023224
            }
        }
    ],
    "meshes" : [
        {
            "name" : "Circle",
            "primitives" : [
                {
                    "attributes" : {
                        "POSITION" : 0,
                        "NORMAL" : 1,
                        "TEXCOORD_0" : 2
                    },
                    "indices" : 3,
                    "material" : 0
                }
            ]
        },
        {
            "name" : "Cube.001",
            "primitives" : [
                {
                    "attributes" : {
                        "POSITION" : 4,
                        "NORMAL" : 5,
                        "TEXCOORD_0" : 6
                    },
                    "indices" : 7,
                    "material" : 0
                }
            ]
        },
        {
            "name" : "Cube.002",
            "primitives" : [
                {
                    "attributes" : {
                        "POSITION" : 8,
                        "NORMAL" : 9,
                        "TEXCOORD_0" : 10
                    },
                    "indices" : 11,
                    "material" : 0
                }
            ]
        },
        {
            "name" : "Circle.002",
            "primitives" : [
                {
                    "attributes" : {
                        "POSITION" : 12,
                        "NORMAL" : 13,
                        "TEXCOORD_0" : 14,
                        "JOINTS_0" : 15,
                        "WEIGHTS_0" : 16
                    },
                    "indices" : 17,
                    "material" : 0
                }
            ]
        },
        {
            "name" : "Circle.003",
            "primitives" : [
                {
                    "attributes" : {
                        "POSITION" : 19,
                        "NORMAL" : 20,
                        "TEXCOORD_0" : 21,
                        "JOINTS_0" : 22,
                        "WEIGHTS_0" : 23
                    },
                    "indices" : 24,
                    "material" : 0
                }
            ]
        },
        {
            "name" : "Cube.003",
            "primitives" : [
                {
                    "attributes" : {
                        "POSITION" : 25,
                        "NORMAL" : 26,
                        "TEXCOORD_0" : 27,
                        "JOINTS_0" : 28,
                        "WEIGHTS_0" : 29
                    },
                    "indices" : 30,
                    "material" : 1
                }
            ]
        },
        {
            "name" : "Circle.001",
            "primitives" : [
                {
                    "attributes" : {
                        "POSITION" : 31,
                        "NORMAL" : 32,
                        "TEXCOORD_0" : 33,
                        "JOINTS_0" : 34,
                        "WEIGHTS_0" : 35
                    },
                    "indices" : 36,
                    "material" : 0
                }
            ]
        }
    ],
    "skins" : [
        {
            "inverseBindMatrices" : 18,
            "joints" : [
                3,
                4,
                5
            ],
            "name" : "Armature"
        }
    ],
    "accessors" : [
        {
            "bufferView" : 0,
            "componentType" : 5126,
            "count" : 1522,
            "max" : [
                0.9998761415481567,
                0.4091528356075287,
                0.9998302459716797
            ],
            "min" : [
                -0.9998761415481567,
                -0.0003875248075928539,
                -1.4915894269943237
            ],
            "type" : "VEC3"
        },
        {
            "bufferView" : 1,
            "componentType" : 5126,
            "count" : 1522,
            "type" : "VEC3"
        },
        {
            "bufferView" : 2,
            "componentType" : 5126,
            "count" : 1522,
            "type" : "VEC2"
        },
        {
            "bufferView" : 3,
            "componentType" : 5123,
            "count" : 8076,
            "type" : "SCALAR"
        },
        {
            "bufferView" : 4,
            "componentType" : 5126,
            "count" : 408,
            "max" : [
                0.2530992031097412,
                0.7842340469360352,
                -0.3248670995235443
            ],
            "min" : [
                -0.2530992031097412,
                0.4115317761898041,
                -0.5223949551582336
            ],
            "type" : "VEC3"
        },
        {
            "bufferView" : 5,
            "componentType" : 5126,
            "count" : 408,
            "type" : "VEC3"
        },
        {
            "bufferView" : 6,
            "componentType" : 5126,
            "count" : 408,
            "type" : "VEC2"
        },
        {
            "bufferView" : 7,
            "componentType" : 5123,
            "count" : 1392,
            "type" : "SCALAR"
        },
        {
            "bufferView" : 8,
            "componentType" : 5126,
            "count" : 294,
            "max" : [
                0.2622118890285492,
                0.8017444610595703,
                -0.31635287404060364
            ],
            "min" : [
                -0.2622118890285492,
                0.7438012957572937,
                -0.5309091210365295
            ],
            "type" : "VEC3"
        },
        {
            "bufferView" : 9,
            "componentType" : 5126,
            "count" : 294,
            "type" : "VEC3"
        },
        {
            "bufferView" : 10,
            "componentType" : 5126,
            "count" : 294,
            "type" : "VEC2"
        },
        {
            "bufferView" : 11,
            "componentType" : 5123,
            "count" : 1104,
            "type" : "SCALAR"
        },
        {
            "bufferView" : 12,
            "componentType" : 5126,
            "count" : 280,
            "max" : [
                0.215615376830101,
                0.47848570346832275,
                0.3378722667694092
            ],
            "min" : [
                -0.215615376830101,
                0.43280768394470215,
                -0.2835747301578522
            ],
            "type" : "VEC3"
        },
        {
            "bufferView" : 13,
            "componentType" : 5126,
            "count" : 280,
            "type" : "VEC3"
        },
        {
            "bufferView" : 14,
            "componentType" : 5126,
            "count" : 280,
            "type" : "VEC2"
        },
        {
            "bufferView" : 15,
            "componentType" : 5121,
            "count" : 280,
            "type" : "VEC4"
        },
        {
            "bufferView" : 16,
            "componentType" : 5126,
            "count" : 280,
            "type" : "VEC4"
        },
        {
            "bufferView" : 17,
            "componentType" : 5123,
            "count" : 1332,
            "type" : "SCALAR"
        },
        {
            "bufferView" : 18,
            "componentType" : 5126,
            "count" : 3,
            "type" : "MAT4"
        },
        {
            "bufferView" : 19,
            "componentType" : 5126,
            "count" : 320,
            "max" : [
                0.10062608122825623,
                0.44341331720352173,
                -0.23063690960407257
            ],
            "min" : [
                -0.10062608122825623,
                0.4093606472015381,
                -0.32578548789024353
            ],
            "type" : "VEC3"
        },
        {
            "bufferView" : 20,
            "componentType" : 5126,
            "count" : 320,
            "type" : "VEC3"
        },
        {
            "bufferView" : 21,
            "componentType" : 5126,
            "count" : 320,
            "type" : "VEC2"
        },
        {
            "bufferView" : 22,
            "componentType" : 5121,
            "count" : 320,
            "type" : "VEC4"
        },
        {
            "bufferView" : 23,
            "componentType" : 5126,
            "count" : 320,
            "type" : "VEC4"
        },
        {
            "bufferView" : 24,
            "componentType" : 5123,
            "count" : 1056,
            "type" : "SCALAR"
        },
        {
            "bufferView" : 25,
            "componentType" : 5126,
            "count" : 56,
            "max" : [
                -0.12369579076766968,
                0.7183281183242798,
                -0.29926732182502747
            ],
            "min" : [
                -0.20185591280460358,
                0.6836870908737183,
                -0.3239199221134186
            ],
            "type" : "VEC3"
        },
        {
            "bufferView" : 26,
            "componentType" : 5126,
            "count" : 56,
            "type" : "VEC3"
        },
        {
            "bufferView" : 27,
            "componentType" : 5126,
            "count" : 56,
            "type" : "VEC2"
        },
        {
            "bufferView" : 28,
            "componentType" : 5121,
            "count" : 56,
            "type" : "VEC4"
        },
        {
            "bufferView" : 29,
            "componentType" : 5126,
            "count" : 56,
            "type" : "VEC4"
        },
        {
            "bufferView" : 30,
            "componentType" : 5123,
            "count" : 192,
            "type" : "SCALAR"
        },
        {
            "bufferView" : 31,
            "componentType" : 5126,
            "count" : 352,
            "max" : [
                0.21761968731880188,
                0.43261298537254333,
                0.3437303900718689
            ],
            "min" : [
                -0.21761968731880188,
                0.4093606472015381,
                -0.28962939977645874
            ],
            "type" : "VEC3"
        },
        {
            "bufferView" : 32,
            "componentType" : 5126,
            "count" : 352,
            "type" : "VEC3"
        },
        {
            "bufferView" : 33,
            "componentType" : 5126,
            "count" : 352,
            "type" : "VEC2"
        },
        {
            "bufferView" : 34,
            "componentType" : 5121,
            "count" : 352,
            "type" : "VEC4"
        },
        {
            "bufferView" : 35,
            "componentType" : 5126,
            "count" : 352,
            "type" : "VEC4"
        },
        {
            "bufferView" : 36,
            "componentType" : 5123,
            "count" : 1344,
            "type" : "SCALAR"
        }
    ],
    "bufferViews" : [
        {
            "buffer" : 0,
            "byteLength" : 18264,
            "byteOffset" : 0
        },
        {
            "buffer" : 0,
            "byteLength" : 18264,
            "byteOffset" : 18264
        },
        {
            "buffer" : 0,
            "byteLength" : 12176,
            "byteOffset" : 36528
        },
        {
            "buffer" : 0,
            "byteLength" : 16152,
            "byteOffset" : 48704
        },
        {
            "buffer" : 0,
            "byteLength" : 4896,
            "byteOffset" : 64856
        },
        {
            "buffer" : 0,
            "byteLength" : 4896,
            "byteOffset" : 69752
        },
        {
            "buffer" : 0,
            "byteLength" : 3264,
            "byteOffset" : 74648
        },
        {
            "buffer" : 0,
            "byteLength" : 2784,
            "byteOffset" : 77912
        },
        {
            "buffer" : 0,
            "byteLength" : 3528,
            "byteOffset" : 80696
        },
        {
            "buffer" : 0,
            "byteLength" : 3528,
            "byteOffset" : 84224
        },
        {
            "buffer" : 0,
            "byteLength" : 2352,
            "byteOffset" : 87752
        },
        {
            "buffer" : 0,
            "byteLength" : 2208,
            "byteOffset" : 90104
        },
        {
            "buffer" : 0,
            "byteLength" : 3360,
            "byteOffset" : 92312
        },
        {
            "buffer" : 0,
            "byteLength" : 3360,
            "byteOffset" : 95672
        },
        {
            "buffer" : 0,
            "byteLength" : 2240,
            "byteOffset" : 99032
        },
        {
            "buffer" : 0,
            "byteLength" : 1120,
            "byteOffset" : 101272
        },
        {
            "buffer" : 0,
            "byteLength" : 4480,
            "byteOffset" : 102392
        },
        {
            "buffer" : 0,
            "byteLength" : 2664,
            "byteOffset" : 106872
        },
        {
            "buffer" : 0,
            "byteLength" : 192,
            "byteOffset" : 109536
        },
        {
            "buffer" : 0,
            "byteLength" : 3840,
            "byteOffset" : 109728
        },
        {
            "buffer" : 0,
            "byteLength" : 3840,
            "byteOffset" : 113568
        },
        {
            "buffer" : 0,
            "byteLength" : 2560,
            "byteOffset" : 117408
        },
        {
            "buffer" : 0,
            "byteLength" : 1280,
            "byteOffset" : 119968
        },
        {
            "buffer" : 0,
            "byteLength" : 5120,
            "byteOffset" : 121248
        },
        {
            "buffer" : 0,
            "byteLength" : 2112,
            "byteOffset" : 126368
        },
        {
            "buffer" : 0,
            "byteLength" : 672,
            "byteOffset" : 128480
        },
        {
            "buffer" : 0,
            "byteLength" : 672,
            "byteOffset" : 129152
        },
        {
            "buffer" : 0,
            "byteLength" : 448,
            "byteOffset" : 129824
        },
        {
            "buffer" : 0,
            "byteLength" : 224,
            "byteOffset" : 130272
        },
        {
            "buffer" : 0,
            "byteLength" : 896,
            "byteOffset" : 130496
        },
        {
            "buffer" : 0,
            "byteLength" : 384,
            "byteOffset" : 131392
        },
        {
            "buffer" : 0,
            "byteLength" : 4224,
            "byteOffset" : 131776
        },
        {
            "buffer" : 0,
            "byteLength" : 4224,
            "byteOffset" : 136000
        },
        {
            "buffer" : 0,
            "byteLength" : 2816,
            "byteOffset" : 140224
        },
        {
            "buffer" : 0,
            "byteLength" : 1408,
            "byteOffset" : 143040
        },
        {
            "buffer" : 0,
            "byteLength" : 5632,
            "byteOffset" : 144448
        },
        {
            "buffer" : 0,
            "byteLength" : 2688,
            "byteOffset" : 150080
        }
    ],
    "buffers" : [
        {
            "byteLength" : 152768,
            "uri" : "data:application/octet-stream;base64,"
        }
    ]
}
